<mxfile host="app.diagrams.net" modified="2020-07-02T19:00:05.121Z" agent="5.0 (Windows)" etag="K2luwr9-r7ZgaQ82QZpo" version="13.3.5" type="github">
  <diagram id="9cIOM07T9-YGNOXP-FdK" name="Page-1">
    <mxGraphModel dx="1185" dy="668" grid="1" gridSize="10" guides="1" tooltips="1" connect="1" arrows="1" fold="1" page="1" pageScale="1" pageWidth="850" pageHeight="1100" math="0" shadow="0">
      <root>
        <mxCell id="0" />
        <mxCell id="1" parent="0" />
        <mxCell id="Vj7BrCkwcQRklzfHVXEM-1" value="First name&amp;nbsp;&lt;br&gt;Last name&lt;br&gt;ID&lt;br&gt;&lt;div&gt;password&lt;br&gt;&lt;/div&gt;&lt;div&gt;email&lt;br&gt;&lt;/div&gt;" style="text;html=1;strokeColor=none;fillColor=none;align=left;verticalAlign=middle;whiteSpace=wrap;rounded=0;" parent="1" vertex="1">
          <mxGeometry x="351.25" y="80" width="130" height="50" as="geometry" />
        </mxCell>
        <mxCell id="Vj7BrCkwcQRklzfHVXEM-10" value="&lt;br&gt;&lt;div&gt;&lt;span style=&quot;color: rgb(0 , 0 , 0) ; font-family: &amp;#34;helvetica&amp;#34; ; font-size: 12px ; font-style: normal ; font-weight: 400 ; letter-spacing: normal ; text-indent: 0px ; text-transform: none ; word-spacing: 0px ; background-color: rgb(248 , 249 , 250) ; display: inline ; float: none&quot;&gt;searchAllCourses()&lt;br&gt;&lt;/span&gt;&lt;/div&gt;&lt;div&gt;searchCoursesByParam()&lt;/div&gt;&lt;div&gt;searchCourses()&lt;br&gt;&lt;span style=&quot;color: rgb(0 , 0 , 0) ; font-family: &amp;#34;helvetica&amp;#34; ; font-size: 12px ; font-style: normal ; font-weight: 400 ; letter-spacing: normal ; text-indent: 0px ; text-transform: none ; word-spacing: 0px ; background-color: rgb(248 , 249 , 250) ; display: inline ; float: none&quot;&gt;&lt;/span&gt;&lt;/div&gt;&lt;div&gt;&lt;span style=&quot;color: rgb(0 , 0 , 0) ; font-family: &amp;#34;helvetica&amp;#34; ; font-size: 12px ; font-style: normal ; font-weight: 400 ; letter-spacing: normal ; text-indent: 0px ; text-transform: none ; word-spacing: 0px ; background-color: rgb(248 , 249 , 250) ; display: inline ; float: none&quot;&gt;&lt;/span&gt;&lt;/div&gt;" style="text;html=1;strokeColor=none;fillColor=none;align=left;verticalAlign=middle;whiteSpace=wrap;rounded=0;" parent="1" vertex="1">
          <mxGeometry x="352.5" y="190" width="80" height="40" as="geometry" />
        </mxCell>
        <mxCell id="NWayfmKOfdbWDNxdP-Yo-30" style="edgeStyle=orthogonalEdgeStyle;rounded=0;orthogonalLoop=1;jettySize=auto;html=1;endArrow=none;endFill=0;gradientColor=none;" parent="1" source="Vj7BrCkwcQRklzfHVXEM-3" target="Vj7BrCkwcQRklzfHVXEM-31" edge="1">
          <mxGeometry relative="1" as="geometry">
            <Array as="points">
              <mxPoint x="415" y="360" />
              <mxPoint x="660" y="360" />
            </Array>
          </mxGeometry>
        </mxCell>
        <mxCell id="NWayfmKOfdbWDNxdP-Yo-31" style="edgeStyle=orthogonalEdgeStyle;rounded=0;orthogonalLoop=1;jettySize=auto;html=1;endArrow=none;endFill=0;gradientColor=none;" parent="1" source="Vj7BrCkwcQRklzfHVXEM-3" edge="1">
          <mxGeometry relative="1" as="geometry">
            <mxPoint x="160" y="400" as="targetPoint" />
            <Array as="points">
              <mxPoint x="415" y="360" />
              <mxPoint x="160" y="360" />
            </Array>
          </mxGeometry>
        </mxCell>
        <mxCell id="NWayfmKOfdbWDNxdP-Yo-33" style="edgeStyle=orthogonalEdgeStyle;rounded=0;orthogonalLoop=1;jettySize=auto;html=1;entryX=0.448;entryY=0.007;entryDx=0;entryDy=0;entryPerimeter=0;endArrow=none;endFill=0;gradientColor=none;" parent="1" source="Vj7BrCkwcQRklzfHVXEM-3" target="Vj7BrCkwcQRklzfHVXEM-22" edge="1">
          <mxGeometry relative="1" as="geometry">
            <Array as="points">
              <mxPoint x="415" y="355" />
              <mxPoint x="415" y="355" />
            </Array>
          </mxGeometry>
        </mxCell>
        <mxCell id="Vj7BrCkwcQRklzfHVXEM-3" value="User" style="shape=table;html=1;whiteSpace=wrap;startSize=20;container=1;collapsible=0;childLayout=tableLayout;fixedRows=1;rowLines=0;fontStyle=1;align=center;columnLines=0;" parent="1" vertex="1">
          <mxGeometry x="329.63" y="40" width="173.25" height="265" as="geometry" />
        </mxCell>
        <mxCell id="Vj7BrCkwcQRklzfHVXEM-4" value="" style="shape=partialRectangle;html=1;whiteSpace=wrap;collapsible=0;dropTarget=0;pointerEvents=0;fillColor=none;top=0;left=0;bottom=1;right=0;points=[[0,0.5],[1,0.5]];portConstraint=eastwest;gradientColor=none;" parent="Vj7BrCkwcQRklzfHVXEM-3" vertex="1">
          <mxGeometry y="20" width="173.25" height="110" as="geometry" />
        </mxCell>
        <mxCell id="Vj7BrCkwcQRklzfHVXEM-5" value="" style="shape=partialRectangle;html=1;whiteSpace=wrap;connectable=0;fillColor=none;top=0;left=0;bottom=0;right=0;overflow=hidden;" parent="Vj7BrCkwcQRklzfHVXEM-4" vertex="1">
          <mxGeometry width="20" height="110" as="geometry" />
        </mxCell>
        <mxCell id="Vj7BrCkwcQRklzfHVXEM-6" value="" style="shape=partialRectangle;html=1;whiteSpace=wrap;connectable=0;fillColor=none;top=0;left=0;bottom=0;right=0;align=left;spacingLeft=6;overflow=hidden;allowArrows=1;gradientColor=none;" parent="Vj7BrCkwcQRklzfHVXEM-4" vertex="1">
          <mxGeometry x="20" width="153" height="110" as="geometry" />
        </mxCell>
        <mxCell id="Vj7BrCkwcQRklzfHVXEM-7" value="" style="shape=partialRectangle;html=1;whiteSpace=wrap;collapsible=0;dropTarget=0;pointerEvents=0;fillColor=none;top=0;left=0;bottom=0;right=0;points=[[0,0.5],[1,0.5]];portConstraint=eastwest;gradientColor=none;" parent="Vj7BrCkwcQRklzfHVXEM-3" vertex="1">
          <mxGeometry y="130" width="173.25" height="120" as="geometry" />
        </mxCell>
        <mxCell id="Vj7BrCkwcQRklzfHVXEM-8" value="" style="shape=partialRectangle;html=1;whiteSpace=wrap;connectable=0;fillColor=none;top=0;left=0;bottom=0;right=0;overflow=hidden;align=left;" parent="Vj7BrCkwcQRklzfHVXEM-7" vertex="1">
          <mxGeometry width="20" height="120" as="geometry" />
        </mxCell>
        <mxCell id="Vj7BrCkwcQRklzfHVXEM-9" value="" style="shape=partialRectangle;html=1;whiteSpace=wrap;connectable=0;fillColor=none;top=0;left=0;bottom=0;right=0;align=left;spacingLeft=6;overflow=hidden;gradientColor=none;" parent="Vj7BrCkwcQRklzfHVXEM-7" vertex="1">
          <mxGeometry x="20" width="153" height="120" as="geometry" />
        </mxCell>
        <mxCell id="NWayfmKOfdbWDNxdP-Yo-62" value="&lt;br&gt;&lt;div&gt;&lt;br&gt;&lt;/div&gt;&lt;div&gt;addCourse()&lt;/div&gt;&lt;div&gt;rmCourse()&lt;/div&gt;&lt;div&gt;studentMenu()&lt;br&gt;&lt;/div&gt;" style="text;html=1;strokeColor=none;fillColor=none;align=left;verticalAlign=middle;whiteSpace=wrap;rounded=0;" parent="1" vertex="1">
          <mxGeometry x="112.5" y="480" width="100" height="50" as="geometry" />
        </mxCell>
        <mxCell id="NWayfmKOfdbWDNxdP-Yo-65" value="&lt;div&gt;&lt;br&gt;&lt;/div&gt;&lt;div&gt;printRoster()&lt;/div&gt;&lt;div&gt;instructorMenu()&lt;br&gt;&lt;/div&gt;" style="text;html=1;strokeColor=none;fillColor=none;align=center;verticalAlign=middle;whiteSpace=wrap;rounded=0;" parent="1" vertex="1">
          <mxGeometry x="405" y="500" width="40" height="20" as="geometry" />
        </mxCell>
        <mxCell id="NWayfmKOfdbWDNxdP-Yo-69" value="&lt;div&gt;addCourseSys()&lt;/div&gt;&lt;div&gt;removeCourseSys()&lt;/div&gt;&lt;div&gt;adminMenu()&lt;/div&gt;" style="text;html=1;strokeColor=none;fillColor=none;align=left;verticalAlign=middle;whiteSpace=wrap;rounded=0;" parent="1" vertex="1">
          <mxGeometry x="600" y="550" width="100" height="40" as="geometry" />
        </mxCell>
        <mxCell id="8MISTg_AA7snmI9OG9AJ-60" value="1" style="text;html=1;strokeColor=none;fillColor=none;align=center;verticalAlign=middle;whiteSpace=wrap;rounded=0;" parent="1" vertex="1">
          <mxGeometry x="660" y="375" width="40" height="20" as="geometry" />
        </mxCell>
        <mxCell id="8MISTg_AA7snmI9OG9AJ-61" value="1...100" style="text;html=1;strokeColor=none;fillColor=none;align=center;verticalAlign=middle;whiteSpace=wrap;rounded=0;" parent="1" vertex="1">
          <mxGeometry x="172.5" y="380" width="40" height="20" as="geometry" />
        </mxCell>
        <mxCell id="8MISTg_AA7snmI9OG9AJ-62" value="1..10" style="text;html=1;strokeColor=none;fillColor=none;align=center;verticalAlign=middle;whiteSpace=wrap;rounded=0;" parent="1" vertex="1">
          <mxGeometry x="425" y="390" width="40" as="geometry" />
        </mxCell>
        <mxCell id="8MISTg_AA7snmI9OG9AJ-63" value="1..*" style="text;html=1;strokeColor=none;fillColor=none;align=center;verticalAlign=middle;whiteSpace=wrap;rounded=0;" parent="1" vertex="1">
          <mxGeometry x="420" y="300" width="40" height="20" as="geometry" />
        </mxCell>
        <mxCell id="NWayfmKOfdbWDNxdP-Yo-44" value="Student" style="shape=table;html=1;whiteSpace=wrap;startSize=30;container=1;collapsible=0;childLayout=tableLayout;fixedRows=1;rowLines=0;fontStyle=1;align=center;columnLines=0;" parent="1" vertex="1">
          <mxGeometry x="102.5" y="400" width="120" height="140" as="geometry" />
        </mxCell>
        <mxCell id="NWayfmKOfdbWDNxdP-Yo-45" value="" style="shape=partialRectangle;html=1;whiteSpace=wrap;collapsible=0;dropTarget=0;pointerEvents=0;fillColor=none;top=0;left=0;bottom=1;right=0;points=[[0,0.5],[1,0.5]];portConstraint=eastwest;gradientColor=none;" parent="NWayfmKOfdbWDNxdP-Yo-44" vertex="1">
          <mxGeometry y="30" width="120" height="60" as="geometry" />
        </mxCell>
        <mxCell id="NWayfmKOfdbWDNxdP-Yo-46" value="" style="shape=partialRectangle;html=1;whiteSpace=wrap;connectable=0;fillColor=none;top=0;left=0;bottom=0;right=0;overflow=hidden;" parent="NWayfmKOfdbWDNxdP-Yo-45" vertex="1">
          <mxGeometry width="30" height="60" as="geometry" />
        </mxCell>
        <mxCell id="NWayfmKOfdbWDNxdP-Yo-47" value="" style="shape=partialRectangle;html=1;whiteSpace=wrap;connectable=0;fillColor=none;top=0;left=0;bottom=0;right=0;align=left;spacingLeft=6;overflow=hidden;allowArrows=1;gradientColor=none;" parent="NWayfmKOfdbWDNxdP-Yo-45" vertex="1">
          <mxGeometry x="30" width="90" height="60" as="geometry" />
        </mxCell>
        <mxCell id="NWayfmKOfdbWDNxdP-Yo-48" value="" style="shape=partialRectangle;html=1;whiteSpace=wrap;collapsible=0;dropTarget=0;pointerEvents=0;fillColor=none;top=0;left=0;bottom=0;right=0;points=[[0,0.5],[1,0.5]];portConstraint=eastwest;gradientColor=none;" parent="NWayfmKOfdbWDNxdP-Yo-44" vertex="1">
          <mxGeometry y="90" width="120" height="40" as="geometry" />
        </mxCell>
        <mxCell id="NWayfmKOfdbWDNxdP-Yo-49" value="&lt;div&gt;&lt;br&gt;&lt;/div&gt;&lt;div&gt;&lt;br&gt;&lt;/div&gt;" style="shape=partialRectangle;html=1;whiteSpace=wrap;connectable=0;fillColor=none;top=0;left=0;bottom=0;right=0;overflow=hidden;align=left;gradientColor=none;" parent="NWayfmKOfdbWDNxdP-Yo-48" vertex="1">
          <mxGeometry width="30" height="40" as="geometry" />
        </mxCell>
        <mxCell id="NWayfmKOfdbWDNxdP-Yo-50" value="" style="shape=partialRectangle;html=1;whiteSpace=wrap;connectable=0;fillColor=none;top=0;left=0;bottom=0;right=0;align=left;spacingLeft=6;overflow=hidden;gradientColor=none;" parent="NWayfmKOfdbWDNxdP-Yo-48" vertex="1">
          <mxGeometry x="30" width="90" height="40" as="geometry" />
        </mxCell>
        <mxCell id="Vj7BrCkwcQRklzfHVXEM-22" value="Instructor" style="shape=table;html=1;whiteSpace=wrap;startSize=30;container=1;collapsible=0;childLayout=tableLayout;fixedRows=1;rowLines=0;fontStyle=1;align=center;columnLines=0;" parent="1" vertex="1">
          <mxGeometry x="362.5" y="405" width="125" height="135" as="geometry" />
        </mxCell>
        <mxCell id="Vj7BrCkwcQRklzfHVXEM-23" value="" style="shape=partialRectangle;html=1;whiteSpace=wrap;collapsible=0;dropTarget=0;pointerEvents=0;fillColor=none;top=0;left=0;bottom=1;right=0;points=[[0,0.5],[1,0.5]];portConstraint=eastwest;gradientColor=none;" parent="Vj7BrCkwcQRklzfHVXEM-22" vertex="1">
          <mxGeometry y="30" width="125" height="45" as="geometry" />
        </mxCell>
        <mxCell id="Vj7BrCkwcQRklzfHVXEM-24" value="" style="shape=partialRectangle;html=1;whiteSpace=wrap;connectable=0;fillColor=none;top=0;left=0;bottom=0;right=0;overflow=hidden;gradientColor=none;" parent="Vj7BrCkwcQRklzfHVXEM-23" vertex="1">
          <mxGeometry width="75" height="45" as="geometry" />
        </mxCell>
        <mxCell id="Vj7BrCkwcQRklzfHVXEM-25" value="" style="shape=partialRectangle;html=1;whiteSpace=wrap;connectable=0;fillColor=none;top=0;left=0;bottom=0;right=0;align=left;spacingLeft=6;overflow=hidden;allowArrows=1;gradientColor=none;" parent="Vj7BrCkwcQRklzfHVXEM-23" vertex="1">
          <mxGeometry x="75" width="50" height="45" as="geometry" />
        </mxCell>
        <mxCell id="Vj7BrCkwcQRklzfHVXEM-26" value="" style="shape=partialRectangle;html=1;whiteSpace=wrap;collapsible=0;dropTarget=0;pointerEvents=0;fillColor=none;top=0;left=0;bottom=0;right=0;points=[[0,0.5],[1,0.5]];portConstraint=eastwest;gradientColor=none;" parent="Vj7BrCkwcQRklzfHVXEM-22" vertex="1">
          <mxGeometry y="75" width="125" height="30" as="geometry" />
        </mxCell>
        <mxCell id="Vj7BrCkwcQRklzfHVXEM-27" value="" style="shape=partialRectangle;html=1;whiteSpace=wrap;connectable=0;fillColor=none;top=0;left=0;bottom=0;right=0;overflow=hidden;align=left;gradientColor=none;" parent="Vj7BrCkwcQRklzfHVXEM-26" vertex="1">
          <mxGeometry width="75" height="30" as="geometry" />
        </mxCell>
        <mxCell id="Vj7BrCkwcQRklzfHVXEM-28" value="" style="shape=partialRectangle;html=1;whiteSpace=wrap;connectable=0;fillColor=none;top=0;left=0;bottom=0;right=0;align=left;spacingLeft=6;overflow=hidden;gradientColor=none;" parent="Vj7BrCkwcQRklzfHVXEM-26" vertex="1">
          <mxGeometry x="75" width="50" height="30" as="geometry" />
        </mxCell>
        <mxCell id="Vj7BrCkwcQRklzfHVXEM-31" value="Admin" style="shape=table;html=1;whiteSpace=wrap;startSize=30;container=1;collapsible=0;childLayout=tableLayout;fixedRows=1;rowLines=0;fontStyle=1;align=center;columnLines=0;" parent="1" vertex="1">
          <mxGeometry x="590" y="395" width="150" height="205" as="geometry" />
        </mxCell>
        <mxCell id="Vj7BrCkwcQRklzfHVXEM-32" value="" style="shape=partialRectangle;html=1;whiteSpace=wrap;collapsible=0;dropTarget=0;pointerEvents=0;fillColor=none;top=0;left=0;bottom=1;right=0;points=[[0,0.5],[1,0.5]];portConstraint=eastwest;" parent="Vj7BrCkwcQRklzfHVXEM-31" vertex="1">
          <mxGeometry y="30" width="150" height="55" as="geometry" />
        </mxCell>
        <mxCell id="Vj7BrCkwcQRklzfHVXEM-33" value="" style="shape=partialRectangle;html=1;whiteSpace=wrap;connectable=0;fillColor=none;top=0;left=0;bottom=0;right=0;overflow=hidden;" parent="Vj7BrCkwcQRklzfHVXEM-32" vertex="1">
          <mxGeometry width="118" height="55" as="geometry" />
        </mxCell>
        <mxCell id="Vj7BrCkwcQRklzfHVXEM-34" value="" style="shape=partialRectangle;html=1;whiteSpace=wrap;connectable=0;fillColor=none;top=0;left=0;bottom=0;right=0;align=left;spacingLeft=6;overflow=hidden;allowArrows=1;gradientColor=none;" parent="Vj7BrCkwcQRklzfHVXEM-32" vertex="1">
          <mxGeometry x="118" width="32" height="55" as="geometry" />
        </mxCell>
        <mxCell id="Vj7BrCkwcQRklzfHVXEM-35" value="" style="shape=partialRectangle;html=1;whiteSpace=wrap;collapsible=0;dropTarget=0;pointerEvents=0;fillColor=none;top=0;left=0;bottom=0;right=0;points=[[0,0.5],[1,0.5]];portConstraint=eastwest;gradientColor=none;" parent="Vj7BrCkwcQRklzfHVXEM-31" vertex="1">
          <mxGeometry y="85" width="150" height="80" as="geometry" />
        </mxCell>
        <mxCell id="Vj7BrCkwcQRklzfHVXEM-36" value="" style="shape=partialRectangle;html=1;whiteSpace=wrap;connectable=0;fillColor=none;top=0;left=0;bottom=0;right=0;overflow=hidden;align=left;gradientColor=none;" parent="Vj7BrCkwcQRklzfHVXEM-35" vertex="1">
          <mxGeometry width="118" height="80" as="geometry" />
        </mxCell>
        <mxCell id="Vj7BrCkwcQRklzfHVXEM-37" value="" style="shape=partialRectangle;html=1;whiteSpace=wrap;connectable=0;fillColor=none;top=0;left=0;bottom=0;right=0;align=left;spacingLeft=6;overflow=hidden;gradientColor=none;" parent="Vj7BrCkwcQRklzfHVXEM-35" vertex="1">
          <mxGeometry x="118" width="32" height="80" as="geometry" />
        </mxCell>
      </root>
    </mxGraphModel>
  </diagram>
</mxfile>
